<svg width="44" height="50" viewBox="0 0 44 50" fill="none" xmlns="http://www.w3.org/2000/svg">
<path d="M22.0033 0.765656C14.9811 0.765656 9.24077 6.50599 9.24077 13.5282C9.24077 20.5505 14.9811 26.2908 22.0033 26.2908C29.0256 26.2908 34.7659 20.5505 34.7659 13.5282C34.7659 6.50599 29.0256 0.765656 22.0033 0.765656Z" fill="#FFD914"/>
<path d="M43.906 36.4897C43.5715 35.6537 43.1257 34.8735 42.6242 34.1489C40.0605 30.3591 36.1036 27.8512 31.6451 27.2382C31.0878 27.1825 30.4747 27.2939 30.0288 27.6283C27.6881 29.356 24.9016 30.2477 22.0035 30.2477C19.1053 30.2477 16.3188 29.356 13.9781 27.6283C13.5322 27.2939 12.9191 27.1267 12.3618 27.2382C7.90329 27.8512 3.89064 30.3591 1.38274 34.1489C0.881156 34.8735 0.435259 35.7095 0.100943 36.4897C-0.0662152 36.8241 -0.0105314 37.2142 0.156627 37.5486C0.602524 38.3289 1.15979 39.1092 1.66137 39.7779C2.44158 40.8369 3.27759 41.7842 4.22506 42.6759C5.00528 43.4561 5.89697 44.1807 6.78876 44.9052C11.1915 48.1934 16.4861 49.921 21.9478 49.921C27.4095 49.921 32.704 48.1933 37.1068 44.9052C37.9985 44.2365 38.8902 43.4561 39.6705 42.6759C40.5622 41.7842 41.4538 40.8368 42.2342 39.7779C42.7914 39.0534 43.2931 38.3289 43.7389 37.5486C44.0174 37.2142 44.0731 36.824 43.906 36.4897Z" fill="#FFD914"/>
</svg>
