<svg width="28" height="28" viewBox="0 0 28 28" fill="none" xmlns="http://www.w3.org/2000/svg">
<path d="M8 1C8 0.448 7.552 0 7 0H1C0.448 0 0 0.448 0 1V27C0 27.552 0.448 28 1 28H7C7.552 28 8 27.552 8 27V1ZM18 11C18 10.448 17.552 10 17 10H11C10.448 10 10 10.448 10 11V27C10 27.552 10.448 28 11 28H17C17.552 28 18 27.552 18 27V11ZM28 5C28 4.448 27.552 4 27 4H21C20.448 4 20 4.448 20 5V27C20 27.552 20.448 28 21 28H27C27.552 28 28 27.552 28 27V5ZM26 6V26H22V6H26ZM16 12V26H12V12H16ZM6 2V26H2V2H6Z" fill="#FFD914"/>
<path d="M26 6V26H22V6H26Z" fill="#FFD914"/>
<path d="M16 12V26H12V12H16Z" fill="#FFD914"/>
<path d="M6 2V26H2V2H6Z" fill="#FFD914"/>
</svg>
