<svg width="44" height="44" viewBox="0 0 44 44" fill="none" xmlns="http://www.w3.org/2000/svg">
<path d="M36.74 44H7.26C3.3 44 0 40.656 0 36.652V20.592C0 18.568 0.88 16.588 2.42 15.224L17.16 1.848C20.02 -0.616 23.98 -0.616 26.84 1.848L41.58 15.224C43.12 16.544 44 18.568 44 20.592V36.652C43.78 40.876 40.7 44 36.74 44ZM22 4.532C21.34 4.532 20.68 4.752 20.02 5.192L5.28 18.568C4.62 19.008 4.4 19.888 4.4 20.812V36.872C4.4 38.412 5.72 39.776 7.26 39.776H36.52C38.06 39.776 39.38 38.456 39.38 36.872V20.812C39.38 19.932 38.94 19.272 38.5 18.568L23.76 5.192C23.32 4.752 22.66 4.532 22 4.532Z" fill="#FFD914"/>
</svg>
