<svg width="39" height="45" viewBox="0 0 39 45" fill="none" xmlns="http://www.w3.org/2000/svg">
<path d="M34.9082 8.85747C34.5753 8.85747 34.2443 8.73976 33.9794 8.49699C29.9204 4.79657 24.7118 2.75876 19.312 2.75876C13.9122 2.75876 8.70364 4.79657 4.64458 8.49883C4.07995 9.01196 3.20818 8.96966 2.69505 8.40871C2.18192 7.84592 2.22238 6.97231 2.78517 6.45918C7.35552 2.29345 13.2243 0 19.312 0C25.3997 0 31.2685 2.29345 35.8388 6.45918C36.4016 6.97231 36.4421 7.84408 35.9289 8.40871C35.6567 8.70666 35.2834 8.85747 34.9082 8.85747Z" fill="#FFD914"/>
<path d="M37.244 17.8713C36.8007 17.8713 36.363 17.6579 36.0981 17.2607C32.269 11.5592 25.9937 8.1549 19.312 8.1549C12.6303 8.1549 6.35501 11.5592 2.52585 17.2607C2.101 17.8952 1.2421 18.0625 0.611264 17.6377C-0.0214124 17.2128 -0.190617 16.3558 0.234233 15.7231C4.57653 9.25841 11.7088 5.39798 19.312 5.39798C26.9151 5.39798 34.0475 9.25841 38.3898 15.7249C38.8146 16.3576 38.6472 17.2147 38.0127 17.6395C37.7773 17.7959 37.5106 17.8713 37.244 17.8713Z" fill="#FFD914"/>
<path d="M14.955 44.1402C14.6 44.1402 14.2451 44.0041 13.9747 43.7319C13.6731 43.4284 6.60514 36.2134 6.60514 29.2668C6.60514 22.0572 12.3047 16.1921 19.312 16.1921C26.3193 16.1921 32.0189 22.0572 32.0189 29.2668C32.0189 30.0282 31.4009 30.6462 30.6395 30.6462C29.8781 30.6462 29.2601 30.0282 29.2601 29.2668C29.2601 23.5782 24.7983 18.9509 19.312 18.9509C13.8257 18.9509 9.3639 23.5782 9.3639 29.2668C9.3639 35.0915 15.8691 41.7235 15.9353 41.7897C16.4723 42.3305 16.4686 43.2041 15.9261 43.7411C15.6576 44.0078 15.3063 44.1402 14.955 44.1402Z" fill="#FFD914"/>
<path d="M23.669 44.1402C20.3511 44.1402 12.6597 37.8282 11.9148 30.7988C11.6518 28.3141 12.4427 25.7724 14.028 23.9994C15.4074 22.4582 17.2705 21.603 19.2734 21.5919H19.312C21.2652 21.5919 23.1117 22.3589 24.5169 23.7548C25.9845 25.2133 26.7919 27.172 26.7919 29.2686V30.168C26.7919 32.3842 28.5171 34.1866 30.6395 34.1866C32.7619 34.1866 34.4889 32.3842 34.4889 30.168V29.8535C34.4889 21.2645 28.2669 14.1193 20.3235 13.5897C16.1836 13.3083 12.2091 14.7391 9.1432 17.6046C5.96142 20.5804 4.13696 24.8325 4.13696 29.2686C4.13696 32.9176 5.37289 36.4727 7.61668 39.2793C8.09119 39.8752 7.99555 40.7414 7.39966 41.2178C6.80561 41.6941 5.93751 41.5985 5.46117 41.0007C2.82931 37.7068 1.3782 33.5392 1.3782 29.2668C1.3782 24.0693 3.52268 19.0833 7.25804 15.5888C10.8867 12.1937 15.5932 10.5035 20.5056 10.8346C29.8928 11.4617 37.2476 19.8153 37.2476 29.8517V30.1662C37.2476 33.9034 34.2829 36.9435 30.6395 36.9435C26.9961 36.9435 24.0332 33.9034 24.0332 30.1662V29.2668C24.0332 27.9095 23.5145 26.6478 22.5729 25.7098C21.6901 24.8307 20.5332 24.3488 19.3138 24.3488C19.3046 24.3488 19.2973 24.3488 19.2881 24.3488C17.734 24.3562 16.6875 25.1636 16.0842 25.8386C15.0083 27.0396 14.475 28.7868 14.657 30.5082C15.2658 36.2428 21.8556 41.3833 23.669 41.3833C24.4304 41.3833 25.0484 42.0012 25.0484 42.7627C25.0484 43.5241 24.4304 44.1402 23.669 44.1402Z" fill="#FFD914"/>
<path d="M28.7874 41.4421C23.8511 41.4421 17.8241 35.4096 17.8241 28.3674C17.8241 27.606 18.4421 26.9881 19.2035 26.9881C19.9649 26.9881 20.5829 27.606 20.5829 28.3674C20.5829 33.8261 25.1716 38.6834 28.7874 38.6834C29.5488 38.6834 30.1668 39.3013 30.1668 40.0628C30.1668 40.8242 29.5488 41.4421 28.7874 41.4421Z" fill="#FFD914"/>
</svg>
