<svg width="50" height="51" viewBox="0 0 50 51" fill="none" xmlns="http://www.w3.org/2000/svg">
<path d="M25.001 0C11.198 0 0 11.1838 0 24.9878C0 38.8051 11.1979 50.002 25.0009 50.002C38.8115 50.002 50 38.8049 50 24.9878C50.0001 11.1838 38.8115 0 25.001 0ZM26.7826 38.8991C26.202 39.4158 25.529 39.6755 24.7667 39.6755C23.978 39.6755 23.29 39.4205 22.7027 38.9094C22.1145 38.3992 21.8199 37.685 21.8199 36.7673C21.8199 35.9532 22.105 35.268 22.6735 34.7127C23.242 34.1574 23.9394 33.8797 24.7667 33.8797C25.5808 33.8797 26.266 34.1574 26.8222 34.7127C27.3775 35.268 27.6561 35.9531 27.6561 36.7673C27.655 37.6718 27.3642 38.3824 26.7826 38.8991ZM34.0229 20.9493C33.5768 21.7766 33.047 22.4899 32.4324 23.0914C31.8197 23.6928 30.7177 24.7036 29.127 26.1247C28.6884 26.5257 28.3355 26.8777 28.0711 27.1807C27.8066 27.4847 27.609 27.7623 27.48 28.0146C27.3501 28.2667 27.2504 28.519 27.1798 28.7712C27.1091 29.0225 27.0028 29.4658 26.8588 30.0991C26.6141 31.4432 25.8452 32.1151 24.553 32.1151C23.8809 32.1151 23.3163 31.8958 22.856 31.4562C22.3976 31.0167 22.169 30.3645 22.169 29.4987C22.169 28.4135 22.3374 27.4733 22.6734 26.6781C23.0076 25.8827 23.4546 25.1854 24.0099 24.584C24.5662 23.9826 25.3153 23.2691 26.2593 22.4419C27.0865 21.7181 27.6842 21.1723 28.0522 20.8042C28.4211 20.4353 28.7308 20.025 28.982 19.5732C29.2353 19.1205 29.3595 18.6301 29.3595 18.1003C29.3595 17.066 28.9765 16.1945 28.2066 15.4839C27.4377 14.7734 26.4457 14.4176 25.2306 14.4176C23.8086 14.4176 22.762 14.7761 22.09 15.4933C21.418 16.2105 20.8505 17.2664 20.3846 18.6622C19.9442 20.1229 19.1103 20.8532 17.8839 20.8532C17.1601 20.8532 16.5494 20.5981 16.0515 20.088C15.5546 19.5778 15.3061 19.0254 15.3061 18.4306C15.3061 17.2033 15.7004 15.9591 16.4882 14.6989C17.277 13.4387 18.427 12.3949 19.9394 11.5686C21.4509 10.7413 23.2157 10.3271 25.2306 10.3271C27.1045 10.3271 28.7581 10.6734 30.1925 11.3653C31.6268 12.056 32.7354 12.9963 33.5175 14.1859C34.2987 15.3745 34.6902 16.6668 34.6902 18.0626C34.6921 19.1592 34.4691 20.122 34.0229 20.9493Z" fill="#FFD914"/>
</svg>
